# xmcd
#
# Track frame offsets: 
#        150
#        25128
#        71790
#        104687
#        141018
#        161475
#        191582
#        217749
#        231106
#        242933
#        254870
#        267869
#
# Disc length: 3764 seconds
#
# Revision: 1
# Processed by: cddbd v1.5.2PL0 Copyright (c) Steve Scherf et al.
# Submitted via: ExactAudioCopyFreeDBPlugin 1.0
#
DISCID=b20eb20c
DTITLE=Tommy Flanagan's Super Jazz Trio - Condado Beach
DYEAR=1978
DGENRE=Jazz
TTITLE0=Pent-up House
TTITLE1=Condado Beach
TTITLE2=Let's Call This
TTITLE3=So Sorry Please
TTITLE4=Ballad
TTITLE5=Milestones
TTITLE6=My One and Only Love
TTITLE7=Strictly Confidential
TTITLE8=Dance of The Infidels
TTITLE9=Bouncing With Bud
TTITLE10=I'll Keep Loving You
TTITLE11=So Sorry,Please
EXTD=YEAR: 1978
EXTT0=
EXTT1=
EXTT2=
EXTT3=
EXTT4=
EXTT5=
EXTT6=
EXTT7=
EXTT8=
EXTT9=
EXTT10=
EXTT11=
PLAYORDER=
